<svg width="300" height="338" viewBox="0 0 300 338" fill="none" xmlns="http://www.w3.org/2000/svg">
<path d="M48.5593 162.848C80.2997 142.048 33.0302 30.3731 56.1255 20.724C79.2208 11.0748 77.8107 110.695 86.3101 111.936C99.7391 113.896 109.644 -19.2059 135.142 -15.4836C160.64 -11.7612 111.397 120.893 127.576 126.64C148.209 133.993 170.311 11.3519 194.578 23.575C209.902 31.3243 136.255 141.622 166.379 158.346C187.792 170.196 203.496 83.9477 232.09 94.1551C252.723 101.507 144.215 306.282 96.8547 308.786C74.9906 309.935 40.863 303.173 26.4568 285.488C6.38027 260.813 19.4296 221.051 1.13753 190.647C-30.3379 138.309 -55.7764 104.214 -41.1805 93.3237C-16.854 75.1738 24.8695 178.4 48.5593 162.848ZM81.3494 164.162C81.3428 167.503 84.0702 170.245 87.4102 170.256C101.936 170.336 116.267 176.855 125.779 187.879C132.868 196.162 136.105 205.576 134.812 214.502C133.101 226.318 123.933 237.783 111.983 242.983C106.197 245.48 94.8719 248.471 83.5193 240.564C68.3825 230.021 65.8501 214.547 70.0005 203.868C72.6004 197.303 78.6375 190.676 87.7682 192.052C95.3326 193.157 100.608 197.182 101.217 202.262C101.863 207.391 97.6269 212.372 89.8595 215.665C86.7598 216.992 85.2954 220.511 86.6253 223.613C87.9552 226.715 91.4745 228.184 94.5742 226.857C109.999 220.428 114.37 209.13 113.281 200.768C111.917 190.109 102.593 181.977 89.5042 180.066C76.1602 178.118 64.1213 185.736 58.6654 199.436C54.1369 210.927 54.9207 226.189 64.5873 239.145C67.6399 243.237 71.5917 247.112 76.516 250.566C88.3417 258.802 102.999 260.074 116.747 254.138C132.44 247.358 144.494 232.148 146.747 216.287C148.557 203.791 144.344 190.937 134.904 180.01C123.162 166.404 105.385 158.209 87.4217 158.191C84.0941 158.096 81.4046 160.785 81.3494 164.162Z" fill="#FCFBF9"/>
</svg>
