<svg width="211" height="311" viewBox="0 0 211 311" fill="none" xmlns="http://www.w3.org/2000/svg">
<g opacity="0.07">
<path d="M0.418581 27.4053C-3.96655 18.8327 28.5777 -2.2944 34.7348 0.203829C50.6691 6.67132 45.7868 93.6907 30.0819 91.294C13.4847 88.7577 34.0592 34.1138 21.1205 24.3872C17.5129 21.6734 2.3307 31.1463 0.418581 27.4053Z" fill="#EA7052"/>
<path d="M0.00322915 132.345C0.85731 113.019 75.6977 91.1812 77.1637 100.007C77.954 104.788 44.8743 121.794 13.8597 133.461C9.30888 135.173 -0.20073 137.164 0.00322915 132.345Z" fill="#EA7052"/>
<path d="M54.7666 212.212C56.1561 211.768 86.0489 209.067 86.2401 201.331C86.4186 193.951 56.7552 190.704 56.7552 190.704L54.7666 212.212Z" fill="#EA7052"/>
<path d="M48.0613 138.761C36.6268 143.149 -0.685076 193.025 9.37268 206.886C13.7961 212.973 34.7274 203.703 41.3051 207.811C50.8657 213.784 46.1364 253.464 60.1459 251.588C70.4841 250.193 75.2516 128.337 48.0613 138.761ZM51.2736 186.672C48.6859 190.476 33.1977 191.097 31.2983 186.38C29.2842 181.384 38.3604 165.811 44.084 166.597C47.3474 167.028 53.4789 183.425 51.2736 186.672Z" fill="#EA7052"/>
<path d="M107.208 166.876C108.228 143.618 198.302 117.343 200.061 127.957C201.017 133.714 161.194 154.182 123.869 168.22C118.413 170.287 106.966 172.684 107.208 166.876Z" fill="#EA7052"/>
<path d="M173.113 263.001C174.783 262.456 210.769 259.209 210.999 249.901C211.215 241.024 175.51 237.106 175.51 237.106L173.113 263.001Z" fill="#EA7052"/>
<path d="M165.057 174.599C151.29 179.874 106.381 239.908 118.504 256.584C123.832 263.914 149.021 252.754 156.937 257.7C168.448 264.89 162.75 312.635 179.615 310.391C192.044 308.717 197.78 162.057 165.057 174.599ZM168.92 232.261C165.81 236.839 147.16 237.575 144.891 231.906C142.469 225.882 153.381 207.152 160.277 208.09C164.203 208.623 171.584 228.355 168.92 232.261Z" fill="#EA7052"/>
<path d="M154.502 80.1991C155.841 79.7679 184.612 77.1682 184.803 69.7243C184.981 62.6227 156.427 59.4904 156.427 59.4904L154.502 80.1991Z" fill="#EA7052"/>
<path d="M148.052 9.50052C137.039 13.7234 101.129 61.735 110.817 75.0631C115.075 80.9219 135.229 72.0069 141.551 75.9508C150.755 81.6955 146.191 119.879 159.691 118.078C169.634 116.759 174.223 -0.530425 148.052 9.50052ZM151.405 56.0791C149.072 59.5158 135.088 60.0738 133.38 55.8128C131.57 51.2983 139.754 37.2346 144.917 37.9448C147.861 38.3506 153.406 53.1624 151.405 56.0791Z" fill="#EA7052"/>
</g>
</svg>
