<svg width="36" height="45" viewBox="0 0 36 45" fill="none" xmlns="http://www.w3.org/2000/svg">
<g opacity="0.6">
<path d="M1.4939 34.7948C2.91415 31.0428 7.50169 29.9837 13.4027 30.4358C28.4284 31.2301 28.2839 22.9511 22.5023 14.233C20.0891 10.5972 18.694 7.181 19.0271 4.37828C19.1591 3.30627 19.5424 2.32468 20.2148 1.45287" stroke="#FCFBF9" stroke-width="1.9125" stroke-miterlimit="10" stroke-linecap="round" stroke-linejoin="round"/>
<path d="M15.946 43.3708C18.3969 40.2323 16.9955 35.6213 13.6648 30.5907C5.47638 17.6168 12.5274 13.6065 22.7645 14.3879C26.8179 14.6978 30.2428 14.2975 32.4612 12.7992C33.4729 12.1147 34.2333 11.2041 34.6795 10.0288" stroke="#FCFBF9" stroke-width="1.9125" stroke-miterlimit="10" stroke-linecap="round" stroke-linejoin="round"/>
<path d="M16.9263 24.7074L10.0827 20.6518" stroke="#FCFBF9" stroke-width="1.9125" stroke-miterlimit="10" stroke-linejoin="round"/>
<path d="M10.9883 36.2096L4.21387 32.1928" stroke="#FCFBF9" stroke-width="1.9125" stroke-miterlimit="10" stroke-linejoin="round"/>
<path d="M32.4748 12.8185L25.8197 8.87273" stroke="#FCFBF9" stroke-width="1.9125" stroke-miterlimit="10" stroke-linejoin="round"/>
<path d="M21.5275 21.2329L12.7672 16.0343" stroke="#FCFBF9" stroke-width="1.9125" stroke-miterlimit="10" stroke-linejoin="round"/>
</g>
</svg>
