<svg width="34" height="40" viewBox="0 0 34 40" fill="none" xmlns="http://www.w3.org/2000/svg">
<g opacity="0.6">
<path d="M5.08168 10.1827C7.31481 10.1827 9.12513 8.30971 9.12513 5.99926C9.12513 3.6888 7.31481 1.81581 5.08168 1.81581C2.84854 1.81581 1.03822 3.6888 1.03822 5.99926C1.03822 8.30971 2.84854 10.1827 5.08168 10.1827Z" stroke="#FCFBF9" stroke-width="1.9125" stroke-miterlimit="10" stroke-linecap="round" stroke-linejoin="round"/>
<path d="M27.4227 14.0636C30.2165 14.0636 32.4814 11.7204 32.4814 8.82978C32.4814 5.93922 30.2165 3.59595 27.4227 3.59595C24.6288 3.59595 22.364 5.93922 22.364 8.82978C22.364 11.7204 24.6288 14.0636 27.4227 14.0636Z" stroke="#FCFBF9" stroke-width="1.9125" stroke-miterlimit="10" stroke-linecap="round" stroke-linejoin="round"/>
<path d="M16.7812 24.4652C19.865 24.4652 22.365 21.8787 22.365 18.6881C22.365 15.4975 19.865 12.911 16.7812 12.911C13.6973 12.911 11.1973 15.4975 11.1973 18.6881C11.1973 21.8787 13.6973 24.4652 16.7812 24.4652Z" stroke="#FCFBF9" stroke-width="1.9125" stroke-miterlimit="10" stroke-linecap="round" stroke-linejoin="round"/>
<path d="M29.1721 31.3053C31.1539 31.3053 32.7605 29.6431 32.7605 27.5927C32.7605 25.5423 31.1539 23.8801 29.1721 23.8801C27.1903 23.8801 25.5838 25.5423 25.5838 27.5927C25.5838 29.6431 27.1903 31.3053 29.1721 31.3053Z" stroke="#FCFBF9" stroke-width="1.9125" stroke-miterlimit="10" stroke-linecap="round" stroke-linejoin="round"/>
<path d="M8.14489 38.1443C10.3877 38.1443 12.2058 36.2632 12.2058 33.9428C12.2058 31.6223 10.3877 29.7412 8.14489 29.7412C5.90208 29.7412 4.08393 31.6223 4.08393 33.9428C4.08393 36.2632 5.90208 38.1443 8.14489 38.1443Z" stroke="#FCFBF9" stroke-width="1.9125" stroke-miterlimit="10" stroke-linecap="round" stroke-linejoin="round"/>
<path d="M21.0456 14.6317L23.6245 12.2834" stroke="#FCFBF9" stroke-width="1.9125" stroke-miterlimit="10" stroke-linecap="round" stroke-linejoin="round"/>
<path d="M7.73659 9.31384L12.7836 14.6503" stroke="#FCFBF9" stroke-width="1.9125" stroke-miterlimit="10" stroke-linecap="round" stroke-linejoin="round"/>
<path d="M26.4665 25.1534L21.4486 21.8634" stroke="#FCFBF9" stroke-width="1.9125" stroke-miterlimit="10" stroke-linecap="round" stroke-linejoin="round"/>
<path d="M9.96033 30.2303L13.7879 23.5657" stroke="#FCFBF9" stroke-width="1.9125" stroke-miterlimit="10" stroke-linecap="round" stroke-linejoin="round"/>
</g>
</svg>
