<svg width="34" height="30" viewBox="0 0 34 30" fill="none" xmlns="http://www.w3.org/2000/svg">
<path opacity="0.5" d="M31.853 0.0249481H2.84681C2.26409 0.0249481 1.7731 0.226776 1.37383 0.63043C0.974566 1.03409 0.774933 1.53047 0.774933 2.11959V21.0041C0.774933 21.5932 0.974566 22.0896 1.37383 22.4932C1.7731 22.8969 2.26409 23.0987 2.84681 23.0987H6.99055V28.3026C6.99055 28.4117 7.00134 28.5153 7.02293 28.6135C7.04451 28.7117 7.08228 28.8044 7.13623 28.8917C7.19019 28.979 7.26033 29.0554 7.34666 29.1208C7.43298 29.1863 7.51931 29.2408 7.60564 29.2845C7.67039 29.3063 7.73513 29.3226 7.79988 29.3336C7.86462 29.3445 7.94016 29.3499 8.02649 29.3499C8.30705 29.3499 8.54446 29.2517 8.7387 29.0554L14.7277 23.0987H31.853C32.4357 23.0987 32.9267 22.8969 33.326 22.4932C33.7253 22.0896 33.9249 21.5932 33.9249 21.0041V2.11959C33.9249 1.87958 33.8925 1.65593 33.8278 1.44865C33.763 1.24137 33.6659 1.05045 33.5364 0.875896C33.4069 0.701343 33.2559 0.548608 33.0832 0.417693C32.9105 0.286778 32.7163 0.188592 32.5005 0.123134C32.2847 0.0576769 32.0689 0.0249481 31.853 0.0249481ZM31.853 21.0041H13.886L9.06243 25.8152V21.0041H2.84681V2.11959H31.853V21.0041ZM8.02649 12.6255H26.6733C26.9539 12.6255 27.1967 12.5219 27.4017 12.3146C27.6068 12.1073 27.7093 11.8619 27.7093 11.5782C27.7093 11.2946 27.6068 11.0491 27.4017 10.8418C27.1967 10.6345 26.9539 10.5309 26.6733 10.5309H8.02649C7.74592 10.5309 7.50313 10.6345 7.2981 10.8418C7.09307 11.0491 6.99055 11.2946 6.99055 11.5782C6.99055 11.8619 7.09307 12.1073 7.2981 12.3146C7.50313 12.5219 7.74592 12.6255 8.02649 12.6255ZM8.02649 8.43624H26.6733C26.9539 8.43624 27.1967 8.3326 27.4017 8.12532C27.6068 7.91804 27.7093 7.67257 27.7093 7.38892C27.7093 7.10527 27.6068 6.85981 27.4017 6.65252C27.1967 6.44524 26.9539 6.3416 26.6733 6.3416H8.02649C7.74592 6.3416 7.50313 6.44524 7.2981 6.65252C7.09307 6.85981 6.99055 7.10527 6.99055 7.38892C6.99055 7.67257 7.09307 7.91804 7.2981 8.12532C7.50313 8.3326 7.74592 8.43624 8.02649 8.43624ZM8.02649 16.8148H20.4577C20.7383 16.8148 20.9811 16.7112 21.1861 16.5039C21.3911 16.2966 21.4937 16.0511 21.4937 15.7675C21.4937 15.4838 21.3911 15.2384 21.1861 15.0311C20.9811 14.8238 20.7383 14.7202 20.4577 14.7202H8.02649C7.74592 14.7202 7.50313 14.8238 7.2981 15.0311C7.09307 15.2384 6.99055 15.4838 6.99055 15.7675C6.99055 16.0511 7.09307 16.2966 7.2981 16.5039C7.50313 16.7112 7.74592 16.8148 8.02649 16.8148Z" fill="white"/>
</svg>
