<svg width="53" height="60" viewBox="0 0 53 60" fill="none" xmlns="http://www.w3.org/2000/svg">
<g opacity="0.8">
<path d="M51.0002 35.5549C49.67 49.3766 37.5192 59.4762 23.8794 58.1283C10.2395 56.7803 0.272736 44.4676 1.60297 30.6459C2.9332 16.8243 15.084 6.72461 28.7238 8.07257" stroke="white" stroke-width="2.85946" stroke-miterlimit="10" stroke-linejoin="round"/>
<path d="M23.2301 16.6305L28.633 7.02642L19.1292 1.54366" stroke="white" stroke-width="2.85946" stroke-miterlimit="10" stroke-linejoin="round"/>
</g>
<path opacity="0.6" d="M19.1608 33.9705V28.2264L19.8299 28.3705L17.6785 29.6676V28.4838L19.7167 27.2485H20.4887V33.9705H19.1608ZM17.5652 34.5779V33.5073H22.0946V34.5779H17.5652ZM25.1365 34.6602C24.2718 34.6602 23.6095 34.3411 23.1497 33.7029C22.6899 33.0646 22.46 32.1347 22.46 30.9132C22.46 29.6916 22.6865 28.7617 23.1394 28.1235C23.5992 27.4852 24.2649 27.1661 25.1365 27.1661C26.008 27.1661 26.6703 27.4852 27.1232 28.1235C27.583 28.7617 27.8129 29.6882 27.8129 30.9029C27.8129 32.1313 27.583 33.0646 27.1232 33.7029C26.6634 34.3411 26.0012 34.6602 25.1365 34.6602ZM25.1365 33.6308C25.61 33.6308 25.9566 33.4146 26.1762 32.9823C26.3958 32.5431 26.5056 31.8499 26.5056 30.9029C26.5056 29.9627 26.3958 29.2798 26.1762 28.8544C25.9566 28.4289 25.61 28.2161 25.1365 28.2161C24.663 28.2161 24.3164 28.4323 24.0968 28.8646C23.8772 29.2901 23.7674 29.9695 23.7674 30.9029C23.7674 31.8499 23.8772 32.5431 24.0968 32.9823C24.3164 33.4146 24.663 33.6308 25.1365 33.6308ZM33.2462 34.6602C32.8687 34.6602 32.5084 34.6293 32.1653 34.5676C31.8222 34.4989 31.4996 34.3994 31.1977 34.269C30.9026 34.1386 30.6418 33.9808 30.4153 33.7955L30.858 32.8279C31.2285 33.1024 31.606 33.3014 31.9903 33.4249C32.3746 33.5484 32.7967 33.6102 33.2565 33.6102C33.7643 33.6102 34.1555 33.521 34.43 33.3426C34.7114 33.1641 34.852 32.9136 34.852 32.5911C34.852 32.3989 34.7903 32.2411 34.6668 32.1176C34.5432 31.9872 34.3579 31.8774 34.1109 31.7882C33.8638 31.6989 33.5584 31.6132 33.1947 31.5308C32.7624 31.4485 32.3815 31.3489 32.0521 31.2323C31.7227 31.1088 31.4481 30.9646 31.2285 30.7999C31.0089 30.6352 30.8408 30.4396 30.7241 30.2132C30.6143 29.9798 30.5594 29.7053 30.5594 29.3896C30.5594 28.9573 30.6761 28.573 30.9094 28.2367C31.1428 27.9004 31.4687 27.6397 31.8874 27.4544C32.3128 27.2622 32.8104 27.1661 33.38 27.1661C33.7231 27.1661 34.056 27.2004 34.3785 27.2691C34.7079 27.3377 35.0099 27.4372 35.2844 27.5676C35.5589 27.6911 35.7957 27.8455 35.9947 28.0308L35.5417 28.9985C35.2123 28.7308 34.8692 28.5352 34.5123 28.4117C34.1555 28.2813 33.7815 28.2161 33.3903 28.2161C32.9168 28.2161 32.5427 28.3122 32.2682 28.5044C31.9937 28.6965 31.8565 28.9642 31.8565 29.3073C31.8565 29.5063 31.9114 29.671 32.0212 29.8014C32.1378 29.9318 32.3128 30.0416 32.5462 30.1308C32.7864 30.22 33.0918 30.3092 33.4623 30.3985C33.8878 30.4877 34.2653 30.5906 34.5947 30.7073C34.931 30.824 35.2158 30.9646 35.4491 31.1293C35.6824 31.2872 35.8574 31.4793 35.9741 31.7058C36.0976 31.9254 36.1594 32.1896 36.1594 32.4985C36.1594 32.9377 36.0427 33.322 35.8094 33.6514C35.5761 33.9739 35.2398 34.2244 34.8006 34.4029C34.3682 34.5744 33.8501 34.6602 33.2462 34.6602Z" fill="white"/>
</svg>
