<svg width="149" height="24" viewBox="0 0 149 24" fill="none" xmlns="http://www.w3.org/2000/svg">
<path d="M41.1719 20.7949C36.4283 20.7949 36.082 17.8159 36.082 14.5772V4.65584H39.9291V14.1419C39.9291 16.4271 40.3051 17.4102 42.3875 17.4102C44.0359 17.4102 45.7424 16.5718 46.4943 16.1662V4.65584H50.3414V20.4474H46.4943V18.7408C45.4531 19.4939 43.4287 20.7949 41.1719 20.7949ZM55.1988 20.4474V0H59.1325V17.2668H68.0113V20.4486H55.1988V20.4474ZM77.8164 20.7949C72.8415 20.7949 69.6894 19.0018 69.6894 12.8125C69.6894 6.36236 72.9578 4.28115 77.412 4.28115C81.9813 4.28115 83.8325 7.28859 83.8325 12.235V13.6237H73.5365C73.5365 17.0949 75.7055 17.6724 78.5114 17.6724C79.6107 17.6724 81.4904 17.2965 82.7913 17.0356L83.3985 20.0146C82.0963 20.4189 79.9854 20.7949 77.8164 20.7949ZM73.6231 11.0479H79.8704C79.8989 8.67606 78.9454 7.02766 77.0361 7.02766C75.0971 7.02766 73.7962 8.44482 73.6231 11.0479ZM91.5836 20.7949C89.3565 20.7949 87.5918 20.5055 86.2625 20.1296L86.725 17.1506C88.3734 17.4102 89.9933 17.6712 91.2077 17.6712C93.6661 17.6712 94.3895 16.9193 94.3895 16.0512C94.3895 13.6213 86.4356 14.5759 86.4356 8.99387C86.4356 5.81207 89.328 4.25023 92.6248 4.25023C94.476 4.25023 96.1529 4.62616 97.3685 5.06021L96.7316 7.92297C95.4876 7.6336 94.3017 7.34423 92.6248 7.34423C90.8602 7.34423 90.2827 8.12454 90.2827 8.78983C90.2827 11.3063 98.1785 10.6114 98.1785 15.8472C98.1772 19.8117 94.2151 20.7949 91.5836 20.7949ZM105.87 20.7949C103.643 20.7949 101.878 20.5055 100.549 20.1296L101.012 17.1506C102.66 17.4102 104.28 17.6712 105.494 17.6712C107.953 17.6712 108.676 16.9193 108.676 16.0512C108.676 13.6213 100.722 14.5759 100.722 8.99387C100.722 5.81207 103.615 4.25023 106.911 4.25023C108.763 4.25023 110.439 4.62616 111.655 5.06021L111.018 7.92297C109.774 7.6336 108.588 7.34423 106.911 7.34423C105.147 7.34423 104.569 8.12454 104.569 8.78983C104.569 11.3063 112.465 10.6114 112.465 15.8472C112.465 19.8117 108.503 20.7949 105.87 20.7949ZM122.558 20.7949C117.67 20.7949 114.923 17.7293 114.923 12.6963C114.923 7.37515 118.105 4.25147 122.791 4.25147C128.055 4.25147 130.484 7.34671 130.484 12.5516C130.484 17.989 127.129 20.7949 122.558 20.7949ZM122.761 17.7009C125.827 17.7009 126.578 15.4156 126.578 12.5528C126.578 9.86321 125.827 7.31827 122.703 7.31827C119.637 7.31827 118.799 9.86321 118.799 12.5825C118.799 15.5022 119.754 17.7009 122.761 17.7009ZM134.04 20.4474V4.65584H137.887V6.33392C139.045 5.4955 140.983 4.25147 143.18 4.25147C148.01 4.25147 148.328 7.17235 148.328 10.4407V20.4474H144.511V10.8748C144.511 8.4745 144.048 7.6064 141.936 7.6064C140.346 7.6064 138.841 8.32981 137.887 8.85043V20.4486H134.04V20.4474Z" fill="white"/>
<path fill-rule="evenodd" clip-rule="evenodd" d="M13.5891 3.53603C14.435 1.89628 16.1477 0.773438 18.1151 0.773438H27.1733V20.0312H18.1139C14.2393 20.0312 14.1563 23.7959 14.1518 23.9966L14.1518 23.9995H13.4754H13.0203C13.0203 23.8362 12.9547 20.0312 9.09528 20.0312H0.0395716L0 19.4673V0.773438H9.05941C11.0269 0.773438 12.7396 1.89628 13.5891 3.53603ZM6.12962 10.4846C5.5175 10.0419 4.99689 9.53616 4.56531 8.96484L3.51172 9.73525C3.85673 10.4339 4.34149 11.1376 4.96721 11.8437C5.5917 12.5498 6.33614 13.1854 7.19929 13.7493C8.06245 14.3132 9.03319 14.7695 10.1115 15.1195C11.1898 15.4694 12.3547 15.6438 13.6062 15.6438C14.8576 15.6438 16.0225 15.4694 17.1008 15.1195C18.1792 14.7695 19.1499 14.3132 20.0131 13.7493C20.875 13.1854 21.6194 12.5498 22.2451 11.8437C22.8696 11.1376 23.3556 10.4352 23.7006 9.73525L22.6433 8.96484C22.2118 9.53492 21.6899 10.0419 21.079 10.4846C20.4669 10.9273 19.8016 11.2909 19.0831 11.5766C18.3647 11.8622 17.6054 12.0799 16.8078 12.2295C16.0101 12.3791 15.2076 12.4546 14.4026 12.4546H12.8061C12.0011 12.4546 11.1985 12.3791 10.4009 12.2295C9.60326 12.0799 8.84399 11.8622 8.12551 11.5766C7.40581 11.2909 6.74051 10.9273 6.12962 10.4846Z" fill="white"/>
</svg>
