<svg width="29" height="38" viewBox="0 0 29 38" fill="none" xmlns="http://www.w3.org/2000/svg">
<g opacity="0.6">
<path d="M23.1446 10.3303C23.1446 11.4002 22.2957 12.2404 21.2817 12.2404C20.2677 12.2404 19.4187 11.4002 19.4187 10.3303C19.4187 9.26036 20.2677 8.42019 21.2817 8.42019C22.2957 8.42019 23.1446 9.26036 23.1446 10.3303Z" stroke="#FCFBF9" stroke-width="1.9125" stroke-miterlimit="10" stroke-linejoin="round"/>
<path d="M16.5827 27.9615C25.0403 22.5135 29.1858 11.8545 26.3933 1.2701C15.9829 4.10254 8.97155 13.0878 8.565 23.2588L16.5827 27.9615Z" stroke="#FCFBF9" stroke-width="1.9125" stroke-miterlimit="10" stroke-linejoin="round"/>
<path d="M16.5818 27.9616C18.048 30.3739 18.4412 33.3961 17.7881 36.2014C21.7803 33.4503 24.073 27.8396 22.1935 22.8252" stroke="#FCFBF9" stroke-width="1.9125" stroke-miterlimit="10" stroke-linejoin="round"/>
<path d="M8.61116 23.2858C5.82528 23.2045 3.05274 24.37 0.986664 26.3419C1.33323 21.4495 4.96553 16.6316 10.1774 15.771" stroke="#FCFBF9" stroke-width="1.9125" stroke-miterlimit="10" stroke-linejoin="round"/>
<path d="M15.4233 27.2902C14.2836 30.7393 11.3644 33.4497 7.57216 34.4187C6.49913 30.597 7.35222 26.6668 9.71821 23.9427" stroke="#FCFBF9" stroke-width="1.9125" stroke-miterlimit="10" stroke-linejoin="round"/>
</g>
</svg>
