<svg width="53" height="60" viewBox="0 0 53 60" fill="none" xmlns="http://www.w3.org/2000/svg">
<g opacity="0.8">
<path d="M1.99783 35.5551C3.32806 49.3766 15.4788 59.4762 29.1187 58.1282C42.7585 56.7803 52.7253 44.4677 51.3951 30.6462C50.0648 16.8246 37.9141 6.72508 24.2742 8.07303" stroke="white" stroke-width="2.85946" stroke-miterlimit="10" stroke-linejoin="round"/>
<path d="M29.7682 16.6305L24.3652 7.02651L33.8691 1.54381" stroke="white" stroke-width="2.85946" stroke-miterlimit="10" stroke-linejoin="round"/>
</g>
<path opacity="0.6" d="M19.6757 33.9705V28.2264L20.3448 28.3705L18.1933 29.6676V28.4838L20.2316 27.2485H21.0036V33.9705H19.6757ZM18.0801 34.5779V33.5073H22.6095V34.5779H18.0801ZM25.6514 34.6602C24.7867 34.6602 24.1244 34.3411 23.6646 33.7029C23.2048 33.0646 22.9749 32.1347 22.9749 30.9132C22.9749 29.6916 23.2014 28.7617 23.6543 28.1235C24.1141 27.4853 24.7798 27.1661 25.6514 27.1661C26.5229 27.1661 27.1852 27.4853 27.6381 28.1235C28.0979 28.7617 28.3278 29.6882 28.3278 30.9029C28.3278 32.1313 28.0979 33.0646 27.6381 33.7029C27.1783 34.3411 26.5161 34.6602 25.6514 34.6602ZM25.6514 33.6308C26.1249 33.6308 26.4715 33.4146 26.6911 32.9823C26.9107 32.5431 27.0205 31.8499 27.0205 30.9029C27.0205 29.9627 26.9107 29.2798 26.6911 28.8544C26.4715 28.4289 26.1249 28.2161 25.6514 28.2161C25.1779 28.2161 24.8313 28.4323 24.6117 28.8647C24.3921 29.2901 24.2823 29.9696 24.2823 30.9029C24.2823 31.8499 24.3921 32.5431 24.6117 32.9823C24.8313 33.4146 25.1779 33.6308 25.6514 33.6308ZM33.7611 34.6602C33.3836 34.6602 33.0233 34.6293 32.6802 34.5676C32.3371 34.4989 32.0145 34.3994 31.7125 34.269C31.4175 34.1386 31.1567 33.9808 30.9302 33.7955L31.3728 32.8279C31.7434 33.1024 32.1209 33.3014 32.5052 33.4249C32.8895 33.5485 33.3116 33.6102 33.7714 33.6102C34.2792 33.6102 34.6704 33.521 34.9449 33.3426C35.2263 33.1641 35.3669 32.9137 35.3669 32.5911C35.3669 32.3989 35.3052 32.2411 35.1816 32.1176C35.0581 31.9872 34.8728 31.8774 34.6258 31.7882C34.3787 31.699 34.0733 31.6132 33.7096 31.5308C33.2772 31.4485 32.8964 31.349 32.567 31.2323C32.2375 31.1088 31.963 30.9646 31.7434 30.7999C31.5238 30.6352 31.3557 30.4396 31.239 30.2132C31.1292 29.9798 31.0743 29.7053 31.0743 29.3897C31.0743 28.9573 31.191 28.573 31.4243 28.2367C31.6576 27.9004 31.9836 27.6397 32.4022 27.4544C32.8277 27.2622 33.3253 27.1661 33.8949 27.1661C34.238 27.1661 34.5709 27.2004 34.8934 27.2691C35.2228 27.3377 35.5248 27.4372 35.7993 27.5676C36.0738 27.6911 36.3106 27.8455 36.5096 28.0308L36.0566 28.9985C35.7272 28.7308 35.3841 28.5352 35.0272 28.4117C34.6704 28.2813 34.2964 28.2161 33.9052 28.2161C33.4317 28.2161 33.0576 28.3122 32.7831 28.5044C32.5086 28.6965 32.3714 28.9642 32.3714 29.3073C32.3714 29.5063 32.4263 29.671 32.5361 29.8014C32.6527 29.9318 32.8277 30.0416 33.0611 30.1308C33.3013 30.22 33.6067 30.3093 33.9772 30.3985C34.4027 30.4877 34.7802 30.5906 35.1096 30.7073C35.4459 30.824 35.7307 30.9646 35.964 31.1293C36.1973 31.2872 36.3723 31.4793 36.489 31.7058C36.6125 31.9254 36.6743 32.1896 36.6743 32.4985C36.6743 32.9377 36.5576 33.322 36.3243 33.6514C36.091 33.9739 35.7547 34.2244 35.3155 34.4029C34.8831 34.5744 34.365 34.6602 33.7611 34.6602Z" fill="white"/>
</svg>
